<svg width="107" height="40" viewBox="0 0 107 40" fill="none" xmlns="http://www.w3.org/2000/svg">
<path d="M5.94634 25.0616L0 39.768H2.63959L4.06091 36.1711H10.3408L11.7621 39.768H14.5323L8.58593 25.0616H5.96084H5.94634ZM9.51414 34.0682H4.8876L5.68528 32.0522C6.2074 30.7179 6.80203 29.1516 7.22263 27.9478H7.26614C7.67223 29.1081 8.26686 30.7324 8.74547 32.0377L9.51414 34.0682Z" fill="#231F20"/>
<path d="M24.3076 32.1392C23.0748 31.4141 21.1604 31.0805 20.1596 30.6744C19.1879 30.2683 18.7238 29.8042 18.7238 28.934C18.7238 27.7592 19.6955 27.1211 21.1604 27.1211C22.3206 27.1211 24.003 27.5272 25.4533 28.4554V25.8738C24.2351 25.2067 22.5237 24.8441 21.1314 24.8441C18.1437 24.8441 16.1567 26.4539 16.1567 29.1516C16.1567 30.8339 16.8819 31.8927 18.1437 32.5598C19.3765 33.227 21.2474 33.5751 22.2336 33.9956C23.2053 34.4162 23.5969 34.9239 23.5969 35.736C23.5969 37.0123 22.5962 37.6795 21.0153 37.6795C19.7971 37.6795 17.8681 37.2154 16.3453 36.0986V38.7527C17.7086 39.5504 19.5505 39.971 21.0733 39.971C24.119 39.971 26.1785 38.3031 26.1785 35.504C26.1785 33.9811 25.5694 32.8209 24.3221 32.1102L24.3076 32.1392Z" fill="#231F20"/>
<path d="M36.5482 32.1392C35.3154 31.4141 33.4009 31.0805 32.4002 30.6744C31.4285 30.2683 30.9499 29.8042 30.9499 28.934C30.9499 27.7592 31.9216 27.1211 33.3864 27.1211C34.5467 27.1211 36.2291 27.5272 37.6794 28.4554V25.8738C36.4611 25.2067 34.7497 24.8441 33.3574 24.8441C30.3698 24.8441 28.3828 26.4539 28.3828 29.1516C28.3828 30.8339 29.108 31.8927 30.3698 32.5598C31.6025 33.227 33.4735 33.5751 34.4597 33.9956C35.4314 34.4162 35.823 34.9239 35.823 35.736C35.823 37.0123 34.8223 37.6795 33.2414 37.6795C32.0231 37.6795 30.0942 37.2154 28.5714 36.0986V38.7527C29.9347 39.5504 31.7766 39.971 33.2994 39.971C36.3451 39.971 38.4046 38.3031 38.4046 35.504C38.4046 33.9811 37.7954 32.8209 36.5627 32.1102L36.5482 32.1392Z" fill="#231F20"/>
<path d="M43.8579 33.2705H49.2387V31.0515H43.8579V27.3387H50.0508V25.0616H41.2764V39.768H50.2539V37.4764H43.8579V33.2705Z" fill="#231F20"/>
<path d="M60.7833 32.1392C59.5505 31.4141 57.6361 31.0805 56.6353 30.6744C55.6636 30.2683 55.185 29.8042 55.185 28.934C55.185 27.7592 56.1567 27.1211 57.6215 27.1211C58.7818 27.1211 60.4642 27.5272 61.9145 28.4554V25.8738C60.6962 25.2067 58.9849 24.8441 57.5925 24.8441C54.6049 24.8441 52.6179 26.4539 52.6179 29.1516C52.6179 30.8339 53.3431 31.8927 54.6049 32.5598C55.8376 33.227 57.7086 33.5751 58.6948 33.9956C59.6665 34.4162 60.0581 34.9239 60.0581 35.736C60.0581 37.0123 59.0574 37.6795 57.4765 37.6795C56.2582 37.6795 54.3293 37.2154 52.8065 36.0986V38.7527C54.1698 39.5504 56.0117 39.971 57.5345 39.971C60.5802 39.971 62.6397 38.3031 62.6397 35.504C62.6397 33.9811 62.0305 32.8209 60.7978 32.1102L60.7833 32.1392Z" fill="#231F20"/>
<path d="M73.024 32.1392C71.7912 31.4141 69.8768 31.0805 68.876 30.6744C67.9043 30.2683 67.4257 29.8042 67.4257 28.934C67.4257 27.7592 68.3974 27.1211 69.8623 27.1211C71.0225 27.1211 72.7049 27.5272 74.1552 28.4554V25.8738C72.937 25.2067 71.2256 24.8441 69.8333 24.8441C66.8456 24.8441 64.8586 26.4539 64.8586 29.1516C64.8586 30.8339 65.5838 31.8927 66.8456 32.5598C68.0784 33.227 69.9493 33.5751 70.9355 33.9956C71.9072 34.4162 72.2988 34.9239 72.2988 35.736C72.2988 37.0123 71.2981 37.6795 69.7172 37.6795C68.499 37.6795 66.57 37.2154 65.0472 36.0986V38.7527C66.4105 39.5504 68.2524 39.971 69.7752 39.971C72.8209 39.971 74.8804 38.3031 74.8804 35.504C74.8804 33.9811 74.2713 32.8209 73.0385 32.1102L73.024 32.1392Z" fill="#231F20"/>
<path d="M84.5686 24.8441C80.2611 24.8441 76.9834 28.1363 76.9834 32.4148C76.9834 36.6933 80.2611 40 84.5686 40C88.8761 40 92.1393 36.6933 92.1393 32.4148C92.1393 28.1363 88.8906 24.8441 84.5686 24.8441ZM84.5686 37.665C81.697 37.665 79.565 35.3444 79.565 32.4293C79.565 29.5141 81.697 27.1936 84.5686 27.1936C87.4403 27.1936 89.5722 29.5141 89.5722 32.4293C89.5722 35.3444 87.4548 37.665 84.5686 37.665Z" fill="#231F20"/>
<path d="M102.48 33.5316C104.424 32.9659 105.613 31.4431 105.613 29.4416C105.613 27.8753 104.917 26.6715 103.93 25.9899C102.93 25.2792 101.755 25.0616 100.189 25.0616H95.0835V39.768H97.6651V33.8796H99.7535L103.756 39.768H106.744L102.48 33.5316ZM100.102 31.7476H97.6651V27.3242H100.087C101.001 27.3242 101.653 27.4112 102.176 27.7738C102.698 28.1363 103.031 28.7745 103.031 29.5577C103.031 30.2828 102.727 30.921 102.176 31.2835C101.653 31.6461 101.001 31.7476 100.102 31.7476Z" fill="#231F20"/>
<path d="M7.51262 11.3996C9.10798 12.4583 11.6896 12.9659 12.9223 13.3575C14.1406 13.7491 14.6627 14.1262 14.6627 14.8949C14.6627 15.8956 13.8651 16.3452 12.5598 16.3452C11.1384 16.3452 8.12176 15.7215 5.51117 14.0972V19.6374C7.61414 20.6962 10.4278 21.2038 12.6178 21.2038C17.4183 21.2038 20.6091 18.7237 20.6091 14.4017C20.6091 12.2988 19.7824 10.6454 18.158 9.63017C16.5337 8.60044 13.9811 8.06382 12.7773 7.70123C11.588 7.32415 11.0369 6.96157 11.0369 6.19289C11.0369 5.30819 11.7476 4.85859 12.9949 4.85859C14.3872 4.85859 17.0268 5.42422 19.5068 6.78753V1.50834C17.5779 0.536621 14.8948 0 12.7918 0C8.13626 0 5.09058 2.50906 5.09058 6.71501C5.09058 8.876 5.91726 10.3553 7.51262 11.4141V11.3996Z" fill="#231F20"/>
<path d="M42.828 0.319061H37.2008V11.5011C37.2008 13.0094 36.8817 14.0827 36.2291 14.7933C35.5764 15.504 34.6337 15.9536 33.4154 15.9536C32.1972 15.9536 31.2544 15.504 30.6018 14.7933C29.9491 14.0537 29.6301 12.9804 29.6301 11.5011V0.319061H23.7708V12.0087C23.7708 14.4017 24.4234 16.7803 26.0478 18.4916C27.6721 20.203 30.3117 21.2183 33.2994 21.2183C36.2871 21.2183 38.9267 20.1885 40.551 18.4916C42.1754 16.7803 42.828 14.4597 42.828 12.0087V0.319061Z" fill="#231F20"/>
<path d="M60.8413 1.95794C59.2459 0.76867 57.317 0.304565 54.924 0.304565H46.9617V20.8992H52.821V14.4452H54.924C57.317 14.4452 59.2459 13.9666 60.8413 12.7629C62.4367 11.5736 63.4229 9.74619 63.4229 7.35315C63.4229 4.96011 62.4221 3.1472 60.8413 1.94343V1.95794ZM56.7514 9.29659C56.2148 9.68818 55.5911 9.86222 54.4454 9.86222H52.821V4.97462H54.4454C55.5766 4.97462 56.2148 5.14866 56.7514 5.54024C57.288 5.93183 57.5781 6.62799 57.5781 7.41116C57.5781 8.19434 57.288 8.8905 56.7514 9.28209V9.29659Z" fill="#231F20"/>
<path d="M80.5511 15.9536H72.5743V12.8209H79.0427V8.16533H72.5743V5.26467H80.203V0.319061H66.7729V20.8992H80.5511V15.9536Z" fill="#231F20"/>
<path d="M90.0363 13.5025H91.3996L95.6925 20.8992H102.205L97.0268 12.5888C99.2168 11.5011 100.522 9.51414 100.522 6.90355C100.522 4.68455 99.5794 2.97317 98.0711 1.87092C96.5627 0.76867 94.7498 0.304565 92.5018 0.304565H84.2205V20.8992H90.0218V13.5025H90.0363ZM90.0363 4.97462H91.9072C92.9369 4.97462 93.5026 5.11965 93.9812 5.45322C94.4598 5.7868 94.7208 6.45395 94.7208 7.16461C94.7208 7.87527 94.4598 8.49891 93.9812 8.84699C93.5026 9.19507 92.9224 9.32559 91.9072 9.32559H90.0363V4.97462Z" fill="#231F20"/>
</svg>
